<?xml version="1.0" encoding="UTF-8"?>
<svg width="114px" height="45px" viewBox="0 0 114 45" version="1.1" xmlns="http://www.w3.org/2000/svg" xmlns:xlink="http://www.w3.org/1999/xlink">
    <!-- Generator: Sketch 64 (93537) - https://sketch.com -->
    <title>Artboard</title>
    <desc>Created with Sketch.</desc>
    <defs>
        <linearGradient x1="50.0182496%" y1="99.9880819%" x2="50.0182496%" y2="0.00780881972%" id="linearGradient-1">
            <stop stop-color="#FFFFFF" stop-opacity="0" offset="0%"></stop>
            <stop stop-color="#CBCCCE" offset="100%"></stop>
        </linearGradient>
        <linearGradient x1="-0.0576483038%" y1="50.0143567%" x2="99.99231%" y2="50.0143567%" id="linearGradient-2">
            <stop stop-color="#FFFFFF" stop-opacity="0" offset="0%"></stop>
            <stop stop-color="#CBCCCE" offset="100%"></stop>
        </linearGradient>
        <linearGradient x1="-0.00701754386%" y1="50.1102941%" x2="99.9859649%" y2="50.1102941%" id="linearGradient-3">
            <stop stop-color="#FFFFFF" stop-opacity="0" offset="0%"></stop>
            <stop stop-color="#CBCCCE" offset="100%"></stop>
        </linearGradient>
        <linearGradient x1="-0.0604870471%" y1="49.9782763%" x2="99.9286622%" y2="49.9782763%" id="linearGradient-4">
            <stop stop-color="#FFFFFF" stop-opacity="0" offset="0%"></stop>
            <stop stop-color="#CBCCCE" offset="100%"></stop>
        </linearGradient>
        <linearGradient x1="50.0314596%" y1="99.8377936%" x2="50.0314596%" y2="-0.131075915%" id="linearGradient-5">
            <stop stop-color="#FFFFFF" stop-opacity="0" offset="0%"></stop>
            <stop stop-color="#CBCCCE" offset="100%"></stop>
        </linearGradient>
    </defs>
    <g id="Artboard" stroke="none" stroke-width="1" fill="none" fill-rule="evenodd">
        <g id="Group-2">
            <path d="M36.7011459,21.5539535 C36.3564947,20.2681395 35.8262622,19.1016279 35.1634715,18.027907 C41.1285878,4.01651163 19.733704,-2.3727907 20.4362622,11.2144186 C20.4362622,11.2276744 20.4627738,11.2276744 20.5025413,11.2409302 C18.9913785,11.3602326 17.4669599,11.6651163 15.9292854,12.1688372 C13.7023087,12.9111628 11.687425,14.0113953 9.93765753,15.3634884 C2.76626218,5.09023256 -4.32559828,21.514186 3.2567273,25.0402326 C2.56742498,27.5588372 2.50114591,30.1834884 3.17719242,32.7153488 C4.3039366,36.8909302 7.23347149,40.0325581 11.0511459,41.7160465 C14.7627738,45.2553488 20.9267273,45.3481395 25.7783552,41.6365116 C26.0169599,41.4509302 26.2555645,41.252093 26.4941692,41.0532558 C34.2223087,37.2886047 38.7160296,29.0434884 36.7011459,21.5539535 Z" id="Path" fill="#000000" fill-rule="nonzero"></path>
            <path d="M35.1767273,22.084186 C33.1088203,14.3560465 24.4130064,10.4323256 15.7569599,13.3088372 C7.10091335,16.1986047 1.77207614,24.8016279 3.83998311,32.5297674 C4.82091335,36.2148837 7.31300637,39.0251163 10.5871924,40.6555814 C13.9806808,44.4202326 20.0783552,44.672093 24.8106808,41.0532558 C25.1288203,40.8146512 25.433704,40.5495349 25.725332,40.2844186 C32.8834715,36.7318605 37.0457971,29.0567442 35.1767273,22.084186 Z M12.9599831,32.5827907 C12.7611459,33.1130233 11.5548668,34.1337209 10.7860296,34.1734884 C10.189518,34.2132558 8.67835521,33.1925581 8.63858777,32.7286047 C8.61207614,32.3706977 8.83742498,32.1983721 9.12905288,32.1718605 L12.2044017,31.6548837 C12.681611,31.6283721 13.1455645,32.0790698 12.9599831,32.5827907 Z M4.09184358,27.6383721 C3.72068079,25.504186 4.80765753,22.7204651 7.14068079,22.3095349 C10.2425413,21.7660465 11.9657971,24.0990698 11.8332389,26.2730233 C11.7669599,27.4130233 9.46044823,27.5588372 7.27323893,30.8197674 C6.37184358,32.1586047 4.38347149,29.3086047 4.09184358,27.6383721 Z M20.2904482,33.9216279 C20.2241692,33.8951163 20.025332,33.9481395 19.9855645,34.0409302 C18.7925413,36.267907 16.1413785,39.4227907 13.251611,39.2902326 C11.0909133,39.184186 9.18207614,37.9116279 8.16137846,36.8644186 C8.12161102,36.8246512 7.94928544,36.8246512 7.909518,36.8644186 C7.65765753,37.1030233 7.29975056,37.2488372 7.16719242,37.195814 C7.32626218,37.1825581 7.65765753,36.9704651 7.85649474,36.5727907 C8.04207614,36.1883721 7.92277381,35.7111628 7.909518,35.4327907 C8.01556451,35.6581395 8.14812265,36.0160465 8.14812265,36.334186 C8.14812265,36.3872093 8.20114591,36.5330233 8.24091335,36.5727907 C9.03626218,37.2753488 10.1364947,37.9116279 12.4827738,37.5802326 C15.0146343,37.2223256 17.9839366,35.1676744 19.6144017,33.8288372 C19.6939366,33.7625581 19.733704,33.5769767 19.667425,33.5106977 C19.2299831,33.0865116 18.9250994,32.5165116 18.9913785,32.2646512 C19.0444017,32.5695349 19.5613785,33.1660465 20.3832389,33.4576744 C21.1918436,33.7493023 22.0932389,33.3913953 22.6367273,33.2986047 C22.0534715,33.6432558 21.0460296,34.1734884 20.2904482,33.9216279 Z M21.7750994,28.5795349 C17.7585878,25.6367442 14.961611,26.4718605 14.391611,25.1462791 C13.3046343,22.6276744 14.325332,19.1148837 18.2490529,18.4255814 C21.1918436,17.9086047 23.6971924,20.7188372 24.1744017,23.4230233 C24.5323087,25.5306977 23.4055645,29.7725581 21.7750994,28.5795349 Z" id="Shape" fill="#FFFFFF"></path>
            <path d="M13.821611,14.2102326 C14.3120761,13.9981395 14.8025413,13.8125581 15.3062622,13.6402326 C23.9623087,10.7504651 32.6581226,14.6874419 34.7260296,22.4155814 C36.7939366,30.1437209 31.425332,38.5611628 22.7825413,41.4509302 C22.6102157,41.5039535 22.4378901,41.5569767 22.2655645,41.61 C30.0334715,38.2827907 25.6192854,31.0451163 30.9348668,23.4495349 C33.7185878,19.4595349 22.305332,11.6386047 13.821611,14.2102326 Z" id="Path" fill="url(#linearGradient-1)"></path>
            <path d="M21.8413785,7.15813953 C24.863704,1.35209302 36.197425,5.40837209 35.0309133,14.1306977 C34.4211459,7.01232558 25.8048668,3.64534884 21.8413785,7.15813953 Z" id="Path" fill="#4D4D4F"></path>
            <path d="M0.419983115,19.9765116 C0.154866836,14.7669767 4.35695986,9.54418605 9.40742498,15.4960465 C9.32789009,15.5623256 9.1423087,15.7213953 8.96998311,15.9202326 C4.59556451,11.0023256 0.67184358,15.1381395 0.419983115,19.9765116 Z" id="Path" fill="#4D4D4F"></path>
            <path d="M16.3667273,25.2125581 C16.3667273,25.2125581 15.1206808,25.0004651 14.9483552,24.7751163 C14.7760296,24.5497674 13.3444017,21.1430233 17.6392854,19.4595349 C16.2739366,20.6525581 15.2267273,22.7602326 16.3667273,25.2125581 Z" id="Path" fill="#4D4D4F" fill-rule="nonzero"></path>
            <path d="M6.47789009,29.0434884 C6.47789009,29.0434884 6.14649474,30.0509302 5.93440172,30.0509302 C5.70905288,30.0509302 2.43486684,25.5837209 6.6767273,23.2639535 C4.90044823,25.6234884 5.37765753,27.6781395 6.47789009,29.0434884 Z" id="Path" fill="#4D4D4F" fill-rule="nonzero"></path>
            <path d="M53.2046343,32.9937209 C53.2046343,34.0674419 53.0720761,35.0483721 52.8069599,35.9232558 C52.5418436,36.7981395 52.157425,37.5669767 51.6404482,38.19 C51.1234715,38.8262791 50.5004482,39.3167442 49.731611,39.6746512 C48.9760296,40.0325581 48.1011459,40.2048837 47.1202157,40.2048837 C46.5767273,40.2048837 46.0597506,40.1518605 45.5825413,40.045814 C45.105332,39.9397674 44.6546343,39.7939535 44.2039366,39.5951163 L44.2039366,44.8311628 L40.2669599,44.8311628 L40.2669599,26.5248837 C40.6248668,26.4188372 41.0225413,26.3127907 41.4864947,26.22 C41.9504482,26.1272093 42.4276575,26.0344186 42.9313785,25.9681395 C43.4350994,25.9018605 43.9388203,25.8355814 44.4690529,25.795814 C44.9860296,25.7560465 45.4897506,25.7295349 45.9669599,25.7295349 C47.1069599,25.7295349 48.1276575,25.9018605 49.0290529,26.2465116 C49.9304482,26.5911628 50.6860296,27.0683721 51.2957971,27.7046512 C51.9188203,28.3276744 52.3827738,29.0965116 52.7141692,29.9846512 C53.0455645,30.8860465 53.2046343,31.8934884 53.2046343,32.9937209 Z M49.1881226,33.0997674 C49.1881226,31.8802326 48.9097506,30.9125581 48.3662622,30.1834884 C47.8227738,29.4544186 47.0141692,29.0832558 45.9404482,29.0832558 C45.5825413,29.0832558 45.2644017,29.0965116 44.959518,29.1230233 C44.6546343,29.1495349 44.4160296,29.1760465 44.2171924,29.215814 L44.2171924,36.3209302 C44.4690529,36.48 44.7871924,36.6125581 45.1848668,36.7186047 C45.5825413,36.8246512 45.9802157,36.8776744 46.3911459,36.8776744 C48.2469599,36.8776744 49.1881226,35.6183721 49.1881226,33.0997674 Z" id="Shape" fill="#FFFFFF" fill-rule="nonzero"></path>
            <path d="M61.2376575,25.6765116 C62.4041692,25.6765116 63.3718436,25.8090698 64.1406808,26.074186 C64.909518,26.3393023 65.5325413,26.7237209 66.0097506,27.214186 C66.473704,27.7046512 66.8050994,28.3011628 67.0039366,29.0169767 C67.2027738,29.7195349 67.2955645,30.5016279 67.2955645,31.3632558 L67.2955645,39.5553488 C66.7255645,39.6746512 65.9434715,39.8204651 64.9492854,39.9927907 C63.9418436,40.1651163 62.7355645,40.2446512 61.3039366,40.2446512 C60.4025413,40.2446512 59.5939366,40.1651163 58.8648668,40.0060465 C58.1357971,39.8469767 57.499518,39.5818605 56.9692854,39.2239535 C56.4390529,38.8660465 56.0413785,38.3888372 55.7497506,37.8055814 C55.4713785,37.2223256 55.3255645,36.5065116 55.3255645,35.6713953 C55.3255645,34.8627907 55.4846343,34.1734884 55.8160296,33.6167442 C56.147425,33.0467442 56.571611,32.6093023 57.1283552,32.2646512 C57.6718436,31.9332558 58.2948668,31.6813953 59.0106808,31.5355814 C59.7132389,31.3897674 60.4423087,31.3102326 61.1978901,31.3102326 C61.7148668,31.3102326 62.1655645,31.3367442 62.5632389,31.3765116 C62.9609133,31.4162791 63.2790529,31.4825581 63.5309133,31.5488372 L63.5309133,31.1776744 C63.5309133,30.5016279 63.3320761,29.9713953 62.9211459,29.5604651 C62.5102157,29.1495349 61.8076575,28.9506977 60.8134715,28.9506977 C60.137425,28.9506977 59.4878901,29.0037209 58.8250994,29.0965116 C58.1755645,29.1893023 57.6055645,29.3351163 57.1283552,29.5074419 L56.6246343,26.3393023 C56.8499831,26.2730233 57.141611,26.1934884 57.4862622,26.1139535 C57.8309133,26.0344186 58.2020761,25.9681395 58.6130064,25.9018605 C59.0239366,25.8355814 59.4481226,25.7825581 59.8988203,25.7427907 C60.3230064,25.7030233 60.773704,25.6765116 61.2376575,25.6765116 Z M61.5557971,37.195814 C61.9402157,37.195814 62.3113785,37.1825581 62.6692854,37.1693023 C63.0271924,37.1560465 63.3055645,37.1295349 63.5176575,37.0897674 L63.5176575,34.1072093 C63.3585878,34.0674419 63.1199831,34.0409302 62.8018436,34.0011628 C62.483704,33.9613953 62.1920761,33.9481395 61.9269599,33.9481395 C61.5557971,33.9481395 61.2111459,33.9746512 60.8797506,34.0144186 C60.5483552,34.054186 60.2699831,34.1469767 60.0181226,34.2662791 C59.7662622,34.3855814 59.5806808,34.557907 59.4348668,34.77 C59.2890529,34.982093 59.2227738,35.2472093 59.2227738,35.5653488 C59.2227738,36.1883721 59.4348668,36.6125581 59.8457971,36.8511628 C60.2567273,37.0765116 60.8267273,37.195814 61.5557971,37.195814 Z" id="Shape" fill="#FFFFFF" fill-rule="nonzero"></path>
            <path d="M70.8613785,26.5248837 C71.5241692,26.3260465 72.3990529,26.1537209 73.4462622,25.9813953 C74.5067273,25.8090698 75.6069599,25.7295349 76.7734715,25.7295349 C77.9532389,25.7295349 78.9341692,25.8886047 79.7162622,26.1934884 C80.4983552,26.4983721 81.1213785,26.935814 81.585332,27.505814 C82.0492854,28.075814 82.367425,28.7386047 82.5662622,29.5206977 C82.7650994,30.2895349 82.8578901,31.1644186 82.8578901,32.1055814 L82.8578901,39.9530233 L78.9209133,39.9530233 L78.9209133,32.5827907 C78.9209133,31.3102326 78.7485878,30.422093 78.4171924,29.8918605 C78.0857971,29.3616279 77.4627738,29.0965116 76.5348668,29.0965116 C76.2564947,29.0965116 75.951611,29.1097674 75.6334715,29.1362791 C75.315332,29.1627907 75.0369599,29.1893023 74.7850994,29.2290698 L74.7850994,39.9530233 L70.8481226,39.9530233 L70.8481226,26.5248837 L70.8613785,26.5248837 Z" id="Path" fill="#FFFFFF" fill-rule="nonzero"></path>
            <path d="M98.685332,39.5023256 C98.327425,39.6083721 97.9297506,39.7144186 97.4657971,39.8072093 C97.0018436,39.9 96.5246343,39.9927907 96.0209133,40.0590698 C95.5171924,40.1253488 95.0134715,40.1916279 94.4832389,40.2313953 C93.9662622,40.2711628 93.4625413,40.2976744 92.985332,40.2976744 C91.845332,40.2976744 90.8246343,40.1253488 89.9232389,39.7939535 C89.0218436,39.4625581 88.2662622,38.9853488 87.6564947,38.3490698 C87.0334715,37.7260465 86.569518,36.9704651 86.2381226,36.0823256 C85.9067273,35.194186 85.7476575,34.1867442 85.7476575,33.0865116 C85.7476575,31.9597674 85.8934715,30.9390698 86.1718436,30.0376744 C86.4502157,29.1362791 86.8611459,28.354186 87.3913785,27.7311628 C87.921611,27.0948837 88.5711459,26.6176744 89.3399831,26.2730233 C90.1088203,25.9416279 90.983704,25.7693023 91.9646343,25.7693023 C92.5081226,25.7693023 92.9985878,25.8223256 93.4360296,25.9283721 C93.8734715,26.0344186 94.2976575,26.1802326 94.7483552,26.3790698 L94.7483552,20.095814 L98.685332,19.4595349 L98.685332,39.5023256 Z M89.777425,32.8876744 C89.777425,34.1072093 90.0557971,35.0748837 90.5992854,35.8172093 C91.1427738,36.5595349 91.9513785,36.9306977 93.0250994,36.9306977 C93.3830064,36.9306977 93.7011459,36.9174419 94.0060296,36.8909302 C94.3109133,36.8644186 94.549518,36.837907 94.7483552,36.7981395 L94.7483552,29.64 C94.4964947,29.4809302 94.1783552,29.3483721 93.7806808,29.2423256 C93.3830064,29.1362791 92.985332,29.0832558 92.5744017,29.0832558 C90.705332,29.0832558 89.777425,30.355814 89.777425,32.8876744 Z" id="Shape" fill="#FFFFFF" fill-rule="nonzero"></path>
            <path d="M107.381146,25.6765116 C108.547658,25.6765116 109.515332,25.8090698 110.284169,26.074186 C111.053006,26.3393023 111.67603,26.7237209 112.153239,27.214186 C112.617192,27.7046512 112.948588,28.3011628 113.147425,29.0169767 C113.346262,29.7195349 113.439053,30.5016279 113.439053,31.3632558 L113.439053,39.5553488 C112.869053,39.6746512 112.08696,39.8204651 111.092774,39.9927907 C110.085332,40.1651163 108.879053,40.2446512 107.447425,40.2446512 C106.54603,40.2446512 105.737425,40.1651163 105.008355,40.0060465 C104.279285,39.8469767 103.643006,39.5818605 103.112774,39.2239535 C102.582541,38.8660465 102.184867,38.3888372 101.893239,37.8055814 C101.614867,37.2223256 101.469053,36.5065116 101.469053,35.6713953 C101.469053,34.8627907 101.628123,34.1734884 101.959518,33.6167442 C102.290913,33.0467442 102.715099,32.6093023 103.271844,32.2646512 C103.815332,31.9332558 104.438355,31.6813953 105.154169,31.5355814 C105.856727,31.3897674 106.585797,31.3102326 107.341378,31.3102326 C107.858355,31.3102326 108.309053,31.3367442 108.706727,31.3765116 C109.104402,31.4162791 109.422541,31.4825581 109.674402,31.5488372 L109.674402,31.1776744 C109.674402,30.5016279 109.475565,29.9713953 109.064634,29.5604651 C108.653704,29.1495349 107.951146,28.9506977 106.95696,28.9506977 C106.280913,28.9506977 105.631378,29.0037209 104.968588,29.0965116 C104.319053,29.1893023 103.749053,29.3351163 103.271844,29.5074419 L102.768123,26.3393023 C102.993471,26.2730233 103.285099,26.1934884 103.629751,26.1139535 C103.974402,26.0344186 104.345565,25.9681395 104.756495,25.9018605 C105.167425,25.8355814 105.591611,25.7825581 106.042309,25.7427907 C106.466495,25.7030233 106.917192,25.6765116 107.381146,25.6765116 Z M107.699285,37.195814 C108.083704,37.195814 108.454867,37.1825581 108.812774,37.1693023 C109.170681,37.1560465 109.449053,37.1295349 109.661146,37.0897674 L109.661146,34.1072093 C109.502076,34.0674419 109.263471,34.0409302 108.945332,34.0011628 C108.627192,33.9613953 108.335565,33.9481395 108.070448,33.9481395 C107.699285,33.9481395 107.354634,33.9746512 107.023239,34.0144186 C106.691844,34.054186 106.413471,34.1469767 106.161611,34.2662791 C105.909751,34.3855814 105.724169,34.557907 105.578355,34.77 C105.432541,34.982093 105.366262,35.2472093 105.366262,35.5653488 C105.366262,36.1883721 105.578355,36.6125581 105.989285,36.8511628 C106.400216,37.0765116 106.970216,37.195814 107.699285,37.195814 Z" id="Shape" fill="#FFFFFF" fill-rule="nonzero"></path>
            <path d="M47.3190529,4.66604651 C48.4855645,4.66604651 49.4532389,4.79860465 50.2220761,5.06372093 C50.9909133,5.32883721 51.6139366,5.71325581 52.0911459,6.20372093 C52.5550994,6.69418605 52.8864947,7.29069767 53.085332,8.00651163 C53.2841692,8.70906977 53.3769599,9.49116279 53.3769599,10.3527907 L53.3769599,18.5448837 C52.8069599,18.664186 52.0248668,18.81 51.0306808,18.9823256 C50.0232389,19.1546512 48.8169599,19.234186 47.385332,19.234186 C46.4839366,19.234186 45.675332,19.1546512 44.9462622,18.9955814 C44.2171924,18.8365116 43.5809133,18.5713953 43.0506808,18.2134884 C42.5204482,17.8555814 42.1227738,17.3783721 41.8311459,16.7951163 C41.5527738,16.2118605 41.4069599,15.4960465 41.4069599,14.6609302 C41.4069599,13.8523256 41.5660296,13.1630233 41.897425,12.6062791 C42.2288203,12.0362791 42.6530064,11.5988372 43.2097506,11.254186 C43.7532389,10.9227907 44.3762622,10.6709302 45.0920761,10.5251163 C45.7946343,10.3793023 46.523704,10.2997674 47.2792854,10.2997674 C47.7962622,10.2997674 48.2469599,10.3262791 48.6446343,10.3660465 C49.0423087,10.405814 49.3604482,10.472093 49.6123087,10.5383721 L49.6123087,10.1672093 C49.6123087,9.5044186 49.4134715,8.96093023 49.0025413,8.55 C48.591611,8.13906977 47.8890529,7.94023256 46.8948668,7.94023256 C46.2188203,7.94023256 45.5692854,7.99325581 44.9064947,8.08604651 C44.2569599,8.17883721 43.6869599,8.32465116 43.2097506,8.49697674 L42.7060296,5.32883721 C42.9313785,5.26255814 43.2230064,5.18302326 43.5676575,5.10348837 C43.9123087,5.02395349 44.2834715,4.95767442 44.6944017,4.89139535 C45.105332,4.82511628 45.529518,4.77209302 45.9802157,4.73232558 C46.4176575,4.69255814 46.8683552,4.66604651 47.3190529,4.66604651 Z M47.6371924,16.1986047 C48.021611,16.1986047 48.3927738,16.1853488 48.7506808,16.172093 C49.1085878,16.1588372 49.3869599,16.1323256 49.5990529,16.0925581 L49.5990529,13.11 C49.4399831,13.0702326 49.2013785,13.0437209 48.8832389,13.0039535 C48.5650994,12.964186 48.2734715,12.9509302 48.0083552,12.9509302 C47.6371924,12.9509302 47.2925413,12.9774419 46.9611459,13.0172093 C46.6297506,13.0569767 46.3513785,13.1497674 46.099518,13.2690698 C45.8476575,13.3883721 45.6620761,13.5606977 45.5162622,13.7727907 C45.3704482,13.9848837 45.3041692,14.25 45.3041692,14.5681395 C45.3041692,15.1911628 45.5162622,15.6153488 45.9271924,15.8539535 C46.3513785,16.0793023 46.9213785,16.1986047 47.6371924,16.1986047 Z" id="Shape" fill="#FFFFFF" fill-rule="nonzero"></path>
            <path d="M60.9327738,16.1190698 C61.6485878,16.1190698 62.1655645,16.0527907 62.4704482,15.9069767 C62.775332,15.7611628 62.9211459,15.4960465 62.9211459,15.0851163 C62.9211459,14.7669767 62.7223087,14.4886047 62.3378901,14.25 C61.9534715,14.0113953 61.3569599,13.7462791 60.561611,13.4413953 C59.9385878,13.2160465 59.3818436,12.9774419 58.8781226,12.7255814 C58.3744017,12.4737209 57.9502157,12.182093 57.5923087,11.8374419 C57.2344017,11.4927907 56.9692854,11.0818605 56.7704482,10.6046512 C56.571611,10.1274419 56.4788203,9.55744186 56.4788203,8.88139535 C56.4788203,7.58232558 56.9692854,6.54837209 57.9369599,5.7927907 C58.9046343,5.0372093 60.2302157,4.6527907 61.9269599,4.6527907 C62.775332,4.6527907 63.5839366,4.73232558 64.3527738,4.87813953 C65.121611,5.02395349 65.7446343,5.19627907 66.2085878,5.36860465 L65.5192854,8.43069767 C65.055332,8.27162791 64.5648668,8.12581395 64.0213785,8.00651163 C63.4778901,7.8872093 62.8813785,7.82093023 62.205332,7.82093023 C60.9725413,7.82093023 60.349518,8.1655814 60.349518,8.85488372 C60.349518,9.01395349 60.3760296,9.15976744 60.4290529,9.27906977 C60.4820761,9.39837209 60.5881226,9.51767442 60.7471924,9.63697674 C60.9062622,9.75627907 61.1183552,9.8755814 61.3967273,10.0081395 C61.6750994,10.1406977 62.0197506,10.2865116 62.4439366,10.4455814 C63.3055645,10.7637209 64.0213785,11.0818605 64.5781226,11.3867442 C65.1481226,11.6916279 65.5855645,12.0362791 65.9169599,12.394186 C66.2483552,12.752093 66.473704,13.1497674 66.6062622,13.6004651 C66.7388203,14.037907 66.8050994,14.5548837 66.8050994,15.1248837 C66.8050994,16.4902326 66.2881226,17.5374419 65.2541692,18.24 C64.2202157,18.9425581 62.7620761,19.3004651 60.8797506,19.3004651 C59.6469599,19.3004651 58.6262622,19.1944186 57.8044017,18.9823256 C56.9825413,18.7702326 56.4125413,18.597907 56.0944017,18.452093 L56.7571924,15.2574419 C57.4332389,15.5225581 58.1092854,15.7346512 58.8250994,15.8804651 C59.5541692,16.0395349 60.2434715,16.1190698 60.9327738,16.1190698 Z" id="Path" fill="#FFFFFF" fill-rule="nonzero"></path>
            <path d="M73.7511459,16.1190698 C74.4669599,16.1190698 74.9839366,16.0527907 75.2888203,15.9069767 C75.593704,15.7611628 75.739518,15.4960465 75.739518,15.0851163 C75.739518,14.7669767 75.5406808,14.4886047 75.1562622,14.25 C74.7718436,14.0113953 74.175332,13.7462791 73.3799831,13.4413953 C72.7569599,13.2160465 72.2002157,12.9774419 71.6964947,12.7255814 C71.1927738,12.4737209 70.7685878,12.182093 70.4106808,11.8374419 C70.0527738,11.4927907 69.7876575,11.0818605 69.5888203,10.6046512 C69.3899831,10.1274419 69.2971924,9.55744186 69.2971924,8.88139535 C69.2971924,7.58232558 69.7876575,6.54837209 70.755332,5.7927907 C71.7230064,5.0372093 73.0485878,4.6527907 74.745332,4.6527907 C75.593704,4.6527907 76.4023087,4.73232558 77.1711459,4.87813953 C77.9399831,5.02395349 78.5630064,5.19627907 79.0269599,5.36860465 L78.3376575,8.43069767 C77.873704,8.27162791 77.3832389,8.12581395 76.8397506,8.00651163 C76.2962622,7.8872093 75.6997506,7.82093023 75.023704,7.82093023 C73.7909133,7.82093023 73.1678901,8.1655814 73.1678901,8.85488372 C73.1678901,9.01395349 73.1944017,9.15976744 73.247425,9.27906977 C73.3004482,9.39837209 73.4064947,9.51767442 73.5655645,9.63697674 C73.7246343,9.75627907 73.9367273,9.8755814 74.2150994,10.0081395 C74.4934715,10.1406977 74.8381226,10.2865116 75.2623087,10.4455814 C76.1239366,10.7637209 76.8397506,11.0818605 77.3964947,11.3867442 C77.9664947,11.6916279 78.4039366,12.0362791 78.735332,12.394186 C79.0667273,12.752093 79.2920761,13.1497674 79.4246343,13.6004651 C79.5571924,14.037907 79.6234715,14.5548837 79.6234715,15.1248837 C79.6234715,16.4902326 79.1064947,17.5374419 78.0725413,18.24 C77.0385878,18.9425581 75.5804482,19.3004651 73.6981226,19.3004651 C72.465332,19.3004651 71.4446343,19.1944186 70.6227738,18.9823256 C69.8009133,18.7702326 69.2309133,18.597907 68.9127738,18.452093 L69.5755645,15.2574419 C70.251611,15.5225581 70.9276575,15.7346512 71.6434715,15.8804651 C72.3725413,16.0395349 73.0618436,16.1190698 73.7511459,16.1190698 Z" id="Path" fill="#FFFFFF" fill-rule="nonzero"></path>
            <path d="M81.9167273,12.1025581 C81.9167273,10.8697674 82.1023087,9.79604651 82.4867273,8.86813953 C82.8711459,7.94023256 83.361611,7.17139535 83.9846343,6.56162791 C84.6076575,5.93860465 85.3102157,5.47465116 86.1055645,5.15651163 C86.9009133,4.83837209 87.7360296,4.67930233 88.5711459,4.67930233 C90.5462622,4.67930233 92.0971924,5.28906977 93.2504482,6.49534884 C94.3904482,7.70162791 94.973704,9.47790698 94.973704,11.824186 C94.973704,12.0495349 94.9604482,12.3013953 94.9471924,12.5797674 C94.9339366,12.8581395 94.907425,13.0967442 94.8941692,13.3088372 L85.9597506,13.3088372 C86.0525413,14.1174419 86.423704,14.7669767 87.0997506,15.244186 C87.7757971,15.7213953 88.6639366,15.96 89.7906808,15.96 C90.5064947,15.96 91.2223087,15.8937209 91.911611,15.7611628 C92.6009133,15.6286047 93.1709133,15.4695349 93.621611,15.2706977 L94.1518436,18.4653488 C93.9397506,18.5713953 93.6613785,18.6774419 93.3034715,18.7834884 C92.9455645,18.8895349 92.5611459,18.9823256 92.123704,19.0618605 C91.6862622,19.1413953 91.2355645,19.2076744 90.7318436,19.2606977 C90.2413785,19.3137209 89.7509133,19.3402326 89.2471924,19.3402326 C88.0011459,19.3402326 86.9141692,19.1546512 85.9862622,18.7834884 C85.0583552,18.4123256 84.289518,17.9086047 83.6930064,17.2590698 C83.0832389,16.6095349 82.6325413,15.8539535 82.3409133,14.9790698 C82.0625413,14.0776744 81.9167273,13.1232558 81.9167273,12.1025581 Z M91.1692854,10.5913953 C91.1560296,10.26 91.0897506,9.92860465 90.9969599,9.61046512 C90.9041692,9.29232558 90.7450994,9.01395349 90.5462622,8.76209302 C90.347425,8.51023256 90.0823087,8.31139535 89.777425,8.15232558 C89.4725413,7.99325581 89.0881226,7.91372093 88.6241692,7.91372093 C88.1867273,7.91372093 87.8023087,7.99325581 87.4841692,8.13906977 C87.1660296,8.28488372 86.9009133,8.48372093 86.6888203,8.7355814 C86.4767273,8.98744186 86.3176575,9.26581395 86.1983552,9.5972093 C86.0790529,9.92860465 85.999518,10.26 85.9464947,10.5913953 L91.1692854,10.5913953 Z" id="Shape" fill="#FFFFFF" fill-rule="nonzero"></path>
            <path d="M97.8767273,1.57744186 L101.813704,0.941162791 L101.813704,5.0372093 L106.54603,5.0372093 L106.54603,8.31139535 L101.813704,8.31139535 L101.813704,13.2027907 C101.813704,14.0246512 101.959518,14.6874419 102.251146,15.1911628 C102.542774,15.6816279 103.12603,15.9334884 104.014169,15.9334884 C104.438355,15.9334884 104.875797,15.8937209 105.326495,15.814186 C105.777192,15.7346512 106.188123,15.6286047 106.559285,15.4827907 L107.11603,18.5448837 C106.63882,18.7437209 106.108588,18.9027907 105.525332,19.0486047 C104.942076,19.1944186 104.226262,19.2606977 103.391146,19.2606977 C102.317425,19.2606977 101.429285,19.1148837 100.726727,18.8232558 C100.024169,18.5316279 99.4541692,18.1339535 99.0299831,17.6037209 C98.6057971,17.0867442 98.3141692,16.4504651 98.1418436,15.7081395 C97.969518,14.965814 97.8899831,14.1439535 97.8899831,13.255814 L97.8899831,1.57744186 L97.8767273,1.57744186 Z" id="Path" fill="#FFFFFF" fill-rule="nonzero"></path>
            <path d="M104.862541,1.17683641e-14 L104.862541,0.583255814 L105.392774,0.583255814 L105.392774,0.861627907 L104.862541,0.861627907 L104.862541,1.96186047 C104.862541,2.21372093 104.92882,2.35953488 105.140913,2.35953488 C105.233704,2.35953488 105.313239,2.34627907 105.353006,2.33302326 L105.366262,2.61139535 C105.299983,2.63790698 105.180681,2.6644186 105.034867,2.6644186 C104.862541,2.6644186 104.716727,2.61139535 104.637192,2.50534884 C104.531146,2.39930233 104.491378,2.21372093 104.491378,1.97511628 L104.491378,0.874883721 L104.173239,0.874883721 L104.173239,0.596511628 L104.491378,0.596511628 L104.491378,0.106046512 L104.862541,1.17683641e-14 Z" id="Path" fill="#FFFFFF" fill-rule="nonzero"></path>
            <path d="M105.81696,1.14 C105.81696,0.927906977 105.81696,0.755581395 105.803704,0.583255814 L106.135099,0.583255814 L106.148355,0.914651163 L106.161611,0.914651163 C106.280913,0.715813953 106.466495,0.543488372 106.79789,0.543488372 C107.076262,0.543488372 107.288355,0.715813953 107.381146,0.954418605 L107.394402,0.954418605 C107.460681,0.835116279 107.540216,0.755581395 107.619751,0.689302326 C107.739053,0.596511628 107.871611,0.543488372 108.070448,0.543488372 C108.335565,0.543488372 108.746495,0.715813953 108.746495,1.43162791 L108.746495,2.63790698 L108.388588,2.63790698 L108.388588,1.48465116 C108.388588,1.08697674 108.242774,0.848372093 107.951146,0.848372093 C107.739053,0.848372093 107.579983,1.00744186 107.513704,1.19302326 C107.500448,1.24604651 107.487192,1.31232558 107.487192,1.37860465 L107.487192,2.63790698 L107.129285,2.63790698 L107.129285,1.40511628 C107.129285,1.07372093 106.983471,0.848372093 106.705099,0.848372093 C106.466495,0.848372093 106.307425,1.03395349 106.241146,1.21953488 C106.214634,1.27255814 106.214634,1.33883721 106.214634,1.40511628 L106.214634,2.63790698 L105.856727,2.63790698 L105.856727,1.14 L105.81696,1.14 Z" id="Path" fill="#FFFFFF" fill-rule="nonzero"></path>
            <path d="M24.5455645,23.0253488 C24.0418436,20.162093 21.377425,17.1662791 18.2623087,17.7230233 C14.0999831,18.452093 13.0130064,22.1902326 14.1662622,24.8546512 C14.2325413,25.0004651 14.325332,25.1197674 14.4313785,25.2125581 C14.4181226,25.1860465 14.4048668,25.1727907 14.391611,25.1462791 C13.3046343,22.6276744 14.325332,19.1148837 18.2490529,18.4255814 C21.1918436,17.9086047 23.6971924,20.7188372 24.1744017,23.4230233 C24.4660296,25.1065116 23.8032389,28.1686047 22.6897506,28.6988372 C24.0285878,28.5795349 24.8902157,24.9606977 24.5455645,23.0253488 Z" id="Path" fill="url(#linearGradient-2)"></path>
            <g id="Group" transform="translate(3.468820, 20.626047)">
                <path d="M3.8044186,10.1937209 C3.69837209,10.3527907 3.57906977,10.4455814 3.43325581,10.4986047 C3.63209302,10.472093 3.81767442,10.3660465 3.96348837,10.1539535 C5.11674419,8.43069767 6.29651163,7.52930233 7.21116279,6.89302326 C6.32302326,7.48953488 5.05046512,8.32465116 3.8044186,10.1937209 Z" id="Path" fill="url(#linearGradient-3)"></path>
                <path d="M3.83093023,1.08697674 C1.35209302,1.5244186 0.185581395,4.48046512 0.583255814,6.76046512 C0.596511628,6.81348837 0.609767442,6.86651163 0.623023256,6.91953488 C0.291627907,4.79860465 1.39186047,2.0944186 3.68511628,1.68348837 C6.78697674,1.14 8.51023256,3.47302326 8.37767442,5.64697674 C8.35116279,6.07116279 8.01976744,6.3627907 7.48953488,6.72069767 C8.27162791,6.19046512 8.80186047,5.85906977 8.82837209,5.30232558 C8.96093023,2.99581395 7.13162791,0.50372093 3.83093023,1.08697674 Z" id="Path" fill="url(#linearGradient-4)"></path>
            </g>
            <path d="M15.4123087,42.8693023 C13.8613785,42.392093 12.469518,41.5304651 11.3560296,40.3109302 C8.02882032,38.6539535 5.48370404,35.8039535 4.47626218,32.0790698 C4.07858777,30.6076744 3.97254125,29.1097674 4.07858777,27.6251163 C3.87975056,26.432093 4.11835521,25.08 4.78114591,24.0195349 C5.36440172,22.2830233 6.27905288,20.5995349 7.44556451,19.0883721 C4.18463428,22.9193023 2.71323893,27.9034884 3.97254125,32.5562791 C4.95347149,36.2148837 7.41905288,38.9986047 10.6667273,40.6290698 C11.9392854,42.0474419 13.5962622,42.962093 15.4255645,43.3597674 L15.4123087,42.8693023 Z" id="Path" fill="url(#linearGradient-5)" fill-rule="nonzero"></path>
            <path d="M10.7860296,34.1734884 C10.2557971,34.2 8.96998311,33.3913953 8.70486684,32.8876744 C8.62533195,32.9804651 8.58556451,33.0997674 8.59882032,33.2588372 C8.62533195,33.7227907 10.1497506,34.7302326 10.7462622,34.7037209 C11.5150994,34.6639535 12.7213785,33.6432558 12.9202157,33.1130233 C12.9732389,32.9672093 12.9599831,32.8213953 12.9202157,32.6888372 C12.615332,33.2323256 11.5150994,34.1337209 10.7860296,34.1734884 Z" id="Path" fill="#E6E7E8"></path>
            <path d="M10.905332,26.4983721 C10.2557971,26.8695349 9.51347149,26.8032558 9.20858777,26.3790698 C8.90370404,25.9548837 9.22184358,25.292093 9.85812265,24.934186 C10.1099831,24.7883721 10.5076575,24.7486047 10.5076575,24.7486047 L10.4944017,24.7618605 C10.2823087,24.8546512 10.1762622,25.0534884 10.2557971,25.1993023 C10.335332,25.3451163 10.5739366,25.3848837 10.7860296,25.2788372 C10.9981226,25.1860465 11.0909133,24.9872093 11.0113785,24.8413953 C10.971611,24.7751163 10.8523087,24.722093 10.759518,24.7088372 C10.3618436,24.6425581 9.84486684,24.7088372 9.40742498,24.9606977 C8.63858777,25.3981395 8.32044823,26.1669767 8.67835521,26.6706977 C9.03626218,27.1876744 9.95091335,27.2406977 10.7197506,26.8165116 C11.1571924,26.5646512 11.4355645,26.2067442 11.5283552,25.8488372 C11.4355645,26.0874419 11.2102157,26.3260465 10.905332,26.4983721 Z" id="Left_Pupil" fill="#FFFFFF"></path>
            <path d="M22.2523087,24.6690698 C21.5099831,24.6160465 20.9267273,24.152093 20.9002157,23.6218605 C20.8869599,23.0916279 21.5099831,22.7204651 22.2390529,22.7734884 C22.5306808,22.8 22.8885878,22.9723256 22.8885878,22.9723256 L22.8620761,22.9723256 C22.6367273,22.9325581 22.4378901,23.0386047 22.4246343,23.1976744 C22.4113785,23.3567442 22.5969599,23.5290698 22.8223087,23.5688372 C23.0476575,23.6086047 23.2332389,23.5025581 23.2464947,23.3302326 C23.2464947,23.2506977 23.1802157,23.1446512 23.1139366,23.0783721 C22.8223087,22.8132558 22.3450994,22.5746512 21.8546343,22.5348837 C20.9797506,22.4686047 20.2771924,22.9325581 20.2904482,23.5555814 C20.303704,24.1786047 21.0327738,24.7486047 21.9076575,24.8016279 C22.4113785,24.8413953 22.8355645,24.6823256 23.1271924,24.4437209 C22.9283552,24.6160465 22.6102157,24.6955814 22.2523087,24.6690698 Z" id="Right_Pupil" fill="#FFFFFF"></path>
        </g>
    </g>
</svg>